<svg width="20" height="20" viewBox="0 0 20 20" fill="none" xmlns="http://www.w3.org/2000/svg">
<path d="M16.5901 0.249857C17.7101 0.249857 18.4201 0.629856 18.8701 1.07986C19.7501 1.95986 20.3701 3.82986 18.3901 7.79986L17.5201 9.52986C17.4101 9.75986 17.4101 10.2399 17.5201 10.4699L18.3901 12.1999C20.3801 16.1699 19.7501 18.0499 18.8701 18.9199C18.0001 19.7999 16.1201 20.4299 12.1601 18.4399L3.60005 14.1599C1.47005 13.0999 0.300051 11.6199 0.300051 9.99986C0.300051 8.37986 1.47005 6.89986 3.59005 5.83986L12.1501 1.55986C14.0901 0.589857 15.5301 0.249857 16.5901 0.249857ZM16.5901 18.2499C17.1301 18.2499 17.5501 18.1199 17.8101 17.8599C18.5401 17.1399 18.2501 15.2699 17.0501 12.8799L16.1801 11.1399C15.8601 10.4899 15.8601 9.50986 16.1801 8.85986L17.0501 7.12986C18.2501 4.72986 18.5401 2.86986 17.8101 2.14986C17.0901 1.41986 15.2201 1.70986 12.8201 2.90986L4.26005 7.18986C2.69005 7.96986 1.80005 8.99986 1.80005 10.0099C1.80005 11.0199 2.70005 12.0499 4.27005 12.8299L12.8301 17.0999C14.3501 17.8599 15.6601 18.2499 16.5901 18.2499Z" fill="white"/>
</svg>
